HIERARCHY
ROOT ui
{
	 OFFSET 0 0 0
	 CHANNELS 3 XPosition YPosition Z Position
	 EndSite
	 {
	 OFFSET 0 -1 0
	 }
}
ROOT li
{
	 OFFSET 0 0 0
	 CHANNELS 3 XPosition YPosition Z Position
	 EndSite
	 {
	 OFFSET 0 -1 0
	 }
}
ROOT ul
{
	 OFFSET 0 0 0
	 CHANNELS 3 XPosition YPosition Z Position
	 EndSite
	 {
	 OFFSET 0 -1 0
	 }
}
ROOT ll
{
	 OFFSET 0 0 0
	 CHANNELS 3 XPosition YPosition Z Position
	 EndSite
	 {
	 OFFSET 0 -1 0
	 }
}
ROOT tt
{
	 OFFSET 0 0 0
	 CHANNELS 3 XPosition YPosition Z Position
	 EndSite
	 {
	 OFFSET 0 -1 0
	 }
}
ROOT tb
{
	 OFFSET 0 0 0
	 CHANNELS 3 XPosition YPosition Z Position
	 EndSite
	 {
	 OFFSET 0 -1 0
	 }
}
ROOT td
{
	 OFFSET 0 0 0
	 CHANNELS 3 XPosition YPosition Z Position
	 EndSite
	 {
	 OFFSET 0 -1 0
	 }
}
ROOT v
{
	 OFFSET 0 0 0
	 CHANNELS 3 XPosition YPosition Z Position
	 EndSite
	 {
	 OFFSET 0 -1 0
	 }
}
ROOT bn
{
	 OFFSET 0 0 0
	 CHANNELS 3 XPosition YPosition Z Position
	 EndSite
	 {
	 OFFSET 0 -1 0
	 }
}
MOTION
Frames: 32
Frame Time: 0.002
1.319700013846159E-5	-7.292529940605163E-4	0		0.4609919738769531	-2.34854443359375	0		-1.097228515625	0.13566940307617187	0		-0.8032490234375	-2.57052587890625	0		1.4615274658203126	-0.7593702392578126	0		3.020375244140625	0.29727496337890624	0		4.62006884765625	0.35576705932617186	0		5.59684765625	0.07167024230957031	0		-0.1468389892578125	5.9970107421875	0		
-0.02775229263305664	0.004714173793792725	0		0.4612442932128906	-2.351678955078125	0		-1.094322998046875	0.12633631896972655	0		-0.7459473266601563	-2.5730302734375	0		1.4606435546875	-0.7623966064453125	0		3.032884033203125	0.31608953857421873	0		4.60215966796875	0.3563872375488281	0		5.59837060546875	0.07210725402832031	0		-0.16047708129882812	5.98611328125	0		
0.004218602180480957	-0.0011753300428390503	0		0.43556976318359375	-2.350248779296875	0		-1.0981337890625	0.13114323425292967	0		-0.76880126953125	-2.580770751953125	0		1.45486767578125	-0.7593192749023437	0		3.035680419921875	0.30411123657226563	0		4.6203671875	0.36321258544921875	0		5.5998740234375	0.07255425262451172	0		-0.14561227416992187	5.99958203125	0		
-0.018737016677856447	-8.597130179405213E-4	0		0.4725686645507812	-2.36220849609375	0		-1.0902183837890624	0.12568114471435546	0		-0.7567098999023437	-2.589290283203125	0		1.42595947265625	-0.7597418823242188	0		3.01685009765625	0.31160879516601564	0		4.6023994140625	0.3648315734863281	0		5.6043037109375	0.08495716094970703	0		-0.14315531921386718	5.997314453125	0		
-0.013682486534118653	0.002835011005401611	0		0.42902044677734374	-2.34940087890625	0		-1.1481820068359374	0.12965721130371094	0		-0.7833074951171874	-2.57996337890625	0		1.43692724609375	-0.7630476684570312	0		3.04932373046875	0.28996853637695313	0		4.6122890625	0.36283087158203126	0		5.61209130859375	0.07986744689941407	0		-0.2722162170410156	5.9759111328125	0		
-0.01180250358581543	0.0025950050354003906	0		0.4850287780761719	-2.353776611328125	0		-1.0831103515625	0.13794407653808594	0		-0.7442313842773437	-2.582075927734375	0		1.4330281982421875	-0.7560314331054687	0		3.040030029296875	0.329249267578125	0		4.6182890625	0.3699080810546875	0		5.61003564453125	0.09777543640136718	0		-0.13939080810546875	5.99579150390625	0		
-0.013109726905822754	-0.0015788170099258422	0		0.4461051940917969	-2.349086181640625	0		-1.1644754638671875	0.132413818359375	0		-0.7550986938476563	-2.576097900390625	0		1.4707332763671874	-0.7629268798828125	0		3.01898388671875	0.29275576782226564	0		4.6130810546875	0.3722150573730469	0		5.6083564453125	0.08621941375732421	0		-0.13910203552246095	5.9965625	0		
-0.011442235946655274	-0.001817231059074402	0		0.4738952331542969	-2.35284765625	0		-1.0888577880859376	0.12948257446289063	0		-0.8030562133789062	-2.568319091796875	0		1.43045166015625	-0.7631356811523438	0		3.028884521484375	0.3045916442871094	0		4.6195654296875	0.3652514953613281	0		5.60659765625	0.07463623809814453	0		-0.15411943054199218	5.9876611328125	0		
-0.009893757820129395	-0.00205247688293457	0		0.432573974609375	-2.35511865234375	0		-1.161281005859375	0.1317547607421875	0		-0.7467705688476562	-2.59079541015625	0		1.4720076904296875	-0.7661178588867188	0		3.0464052734375	0.3042511291503906	0		4.61108740234375	0.3655955200195313	0		5.6077138671875	0.0749796142578125	0		-0.15304185485839844	5.98741455078125	0		
-0.013360383987426758	0.002823344945907593	0		0.4860539855957031	-2.36143017578125	0		-1.1458048095703126	0.13413836669921875	0		-0.7847801513671875	-2.573226318359375	0		1.416631103515625	-0.7590174560546875	0		3.048236328125	0.3242425537109375	0		4.62661083984375	0.37140579223632814	0		5.61582666015625	0.06972805786132813	0		-0.2683123779296875	5.97666455078125	0		
-0.008997406005859375	0.005534833908081055	0		0.45586563110351563	-2.34493896484375	0		-1.075444580078125	0.13636085510253906	0		-0.7571595458984375	-2.567060546875	0		1.476905517578125	-0.7634031982421875	0		3.03308984375	0.3045762023925781	0		4.63586181640625	0.37033074951171874	0		5.61263818359375	0.08751781463623047	0		-0.13594102478027345	5.99761767578125	0		
-0.00599301815032959	-0.002721085071563721	0		0.4800141906738281	-2.353613037109375	0		-1.07836181640625	0.132164306640625	0		-0.7819644775390625	-2.573767333984375	0		1.4391810302734376	-0.760693359375	0		3.0555185546875	0.3171033630371094	0		4.62491015625	0.36566690063476565	0		5.61052783203125	0.07579142761230469	0		-0.13418830871582033	5.99537353515625	0		
-0.009830354690551758	0.0021783831119537352	0		0.4812051391601562	-2.353790771484375	0		-1.0823983154296875	0.12800392150878906	0		-0.7257944946289062	-2.5761865234375	0		1.4740810546875	-0.7705362548828125	0		3.035283935546875	0.304523681640625	0		4.63007080078125	0.3716421203613281	0		5.61424755859375	0.08794664764404297	0		-0.13443650817871095	5.99718115234375	0		
-0.00889041233062744	0.0019824299812316896	0		0.48226678466796874	-2.353961181640625	0		-1.155427001953125	0.1303213653564453	0		-0.7796878051757813	-2.57425341796875	0		1.4381964111328125	-0.7638724365234375	0		3.026486083984375	0.3176941223144531	0		4.63069482421875	0.35768899536132814	0		5.61609423828125	0.058624683380126955	0		-0.1338062286376953	5.99697900390625	0		
-8.09049978852272E-5	6.278460025787353E-4	0		0.4442562255859375	-2.351300048828125	0		-1.1405399169921875	0.13278738403320312	0		-0.730940673828125	-2.5844873046875	0		1.4421260986328126	-0.7610570068359375	0		3.046728515625	0.29022796630859377	0		4.6197890625	0.37096304321289064	0		5.61548095703125	0.08302143859863281	0		-0.2637431640625	5.9745439453125	0		
0.025626100540161133	-0.0010746610164642334	0		0.4891745300292969	-2.347388427734375	0		-1.135748779296875	0.13548443603515625	0		-0.773824951171875	-2.57076318359375	0		1.445972412109375	-0.7572415161132813	0		3.067249755859375	0.327758544921875	0		4.63665283203125	0.3776233215332031	0		5.6190126953125	0.10022968292236328	0		-0.26323507690429687	5.97435888671875	0		
-0.0036189820766448976	0.004393312931060791	0		0.48474267578125	-2.3544306640625	0		-1.07418701171875	0.13099946594238282	0		-0.7530867919921875	-2.570373291015625	0		1.4804410400390624	-0.7670767211914062	0		3.038382568359375	0.3043050231933594	0		4.633158203125	0.37168661499023437	0		5.61235888671875	0.10233233642578125	0		-0.13325564575195312	5.99746044921875	0		
-0.0012304140329360961	-0.003801469087600708	0		0.45942599487304686	-2.3510263671875	0		-1.15267822265625	0.1294841003417969	0		-0.7873963012695312	-2.56680908203125	0		1.472082275390625	-0.7640064697265625	0		3.029208984375	0.317431640625	0		4.63955810546875	0.36451904296875	0		5.6139609375	0.07627799224853515	0		-0.1470921630859375	5.98560009765625	0		
-0.005646737098693848	0.001157938003540039	0		0.48587738037109374	-2.354709228515625	0		-1.07824072265625	0.12676101684570312	0		-0.7519429321289063	-2.570704345703125	0		1.438475830078125	-0.768407470703125	0		3.039404541015625	0.3041347961425781	0		4.6241796875	0.37179449462890624	0		5.607841796875	0.07134117126464844	0		-0.13149626159667968	5.996134765625	0		
-0.005244749069213867	0.001022405982017517	0		0.44529840087890626	-2.3549755859375	0		-1.137742919921875	0.13187254333496093	0		-0.762736083984375	-2.58161572265625	0		1.4450338134765626	-0.7616517944335938	0		3.0562197265625	0.3236983337402344	0		4.6425517578125	0.3703414306640625	0		5.6111025390625	0.08492347717285156	0		-0.263627685546875	5.975779296875	0		
0.003065256118774414	-2.722339928150177E-4	0		0.48976803588867185	-2.35002490234375	0		-1.0683424072265626	0.13428443908691406	0		-0.7362394409179688	-2.575297119140625	0		1.445373291015625	-0.761765869140625	0		3.0401328125	0.30393902587890625	0		4.639029296875	0.37733758544921875	0		5.62187255859375	0.06521563720703125	0		-0.13089222717285157	5.99586962890625	0		
-0.0015791809558868407	0.0037136878967285155	0		0.4630561828613281	-2.3495732421875	0		-1.072156005859375	0.13024571228027343	0		-0.7488271484375	-2.569147216796875	0		1.4825341796875	-0.767653564453125	0		3.06167041015625	0.31639169311523435	0		4.6351728515625	0.3713280334472656	0		5.62435546875	0.0822461166381836	0		-0.1306520233154297	5.9957509765625	0		
4.671509861946106E-4	-0.004437359809875488	0		0.487166015625	-2.355186279296875	0		-1.0770242919921875	0.1262385025024414	0		-0.7506480102539063	-2.57121728515625	0		1.4338668212890624	-0.7617322387695312	0		3.03576416015625	0.31083563232421874	0		4.63538671875	0.3712276916503906	0		5.62109375	0.0995540313720703	0		-0.13142936706542968	5.99666064453125	0		
6.336169838905334E-4	-0.0045413608551025395	0		0.43547021484375	-2.348198486328125	0		-1.1467373046875	0.13260459899902344	0		-0.7396519775390625	-2.57955078125	0		1.479833984375	-0.7718009643554687	0		3.02695361328125	0.3119207458496094	0		4.64967626953125	0.376828369140625	0		5.6181796875	0.07876467895507812	0		-0.13028448486328126	5.99553564453125	0		
0.0038419179916381837	-7.028110027313232E-4	0		0.4925992431640625	-2.348495361328125	0		-1.1266796875	0.12908946228027343	0		-0.758506591796875	-2.578247802734375	0		1.4320521240234374	-0.7668931274414063	0		3.045759521484375	0.296421630859375	0		4.633658203125	0.3700602111816406	0		5.61826904296875	0.0785784683227539	0		-0.26064535522460935	5.9731767578125	0		
0.011056243896484375	0.005058012008666992	0		0.4765582885742187	-2.35425	0		-1.0633931884765624	0.13767597961425782	0		-0.7214549560546875	-2.580113525390625	0		1.4851905517578126	-0.7651036376953125	0		3.066392578125	0.3218942565917969	0		4.6437470703125	0.36974334716796875	0		5.6171611328125	0.10786498260498047	0		-0.11485232543945313	6.00403076171875	0		
0.0039914710521698	-8.769059777259826E-4	0		0.487583740234375	-2.355566650390625	0		-1.0714991455078124	0.12976751708984374	0		-0.7831199951171876	-2.565892578125	0		1.4373626708984375	-0.7591856689453125	0		3.02193798828125	0.2977274169921875	0		4.6458291015625	0.37059619140625	0		5.61837451171875	0.07820024108886718	0		-0.13092938232421875	5.9962861328125	0		
-8.896539807319641E-4	0.003151343107223511	0		0.46167333984375	-2.35209912109375	0		-1.0714647216796875	0.12969735717773437	0		-0.7481712646484375	-2.569699951171875	0		1.4711953125	-0.768982666015625	0		3.0321181640625	0.30442300415039064	0		4.6358671875	0.370705078125	0		5.614982421875	0.09549456787109376	0		-0.13086293029785157	5.9962109375	0		
9.516929984092712E-4	-0.004957839012145996	0		0.49642950439453126	-2.36390478515625	0		-1.146416259765625	0.13221296691894532	0		-0.7743187866210938	-2.57621533203125	0		1.4373974609375	-0.759347412109375	0		3.041107177734375	0.30314596557617185	0		4.63587939453125	0.3706071472167969	0		5.61498876953125	0.09531562042236329	0		-0.13081527709960938	5.99614306640625	0		
0.004023892879486084	-0.0010838589668273925	0		0.43879266357421876	-2.344753662109375	0		-1.1323875732421875	0.13386424255371093	0		-0.73533642578125	-2.5760927734375	0		1.4852647705078126	-0.7654290771484376	0		3.04928564453125	0.3118914184570313	0		4.63999609375	0.3764258117675781	0		5.62135205078125	0.08962216186523438	0		-0.24803050231933593	5.98554736328125	0		
-9.216089844703674E-4	0.0029654700756073	0		0.49266656494140626	-2.34894873046875	0		-1.1383106689453124	0.1389441680908203	0		-0.780105712890625	-2.562197021484375	0		1.446278076171875	-0.7626760864257812	0		3.04106982421875	0.30298065185546874	0		4.63996875	0.3763309326171875	0		5.6213291015625	0.0894448699951172	0		-0.1307621307373047	5.99602783203125	0		
0.003944098949432373	-0.001186771035194397	0		0.4615167236328125	-2.35234765625	0		-1.067458251953125	0.1334129638671875	0		-0.7483348388671875	-2.569909423828125	0		1.4772357177734374	-0.7623916625976562	0		3.062293212890625	0.3154571533203125	0		4.62580029296875	0.370532958984375	0		5.6171640625	0.10678135681152344	0		-0.1307510986328125	5.9959814453125	0		
